<?xml version="1.0" standalone="no"?>
<!DOCTYPE svg PUBLIC "-//W3C//DTD SVG 20010904//EN"
 "http://www.w3.org/TR/2001/REC-SVG-20010904/DTD/svg10.dtd">
<svg version="1.0" xmlns="http://www.w3.org/2000/svg"
 width="213.000000pt" height="256.000000pt" viewBox="0 0 213.000000 256.000000"
 preserveAspectRatio="xMidYMid meet">
<metadata>
Created by potrace 1.10, written by Peter Selinger 2001-2011
</metadata>
<g transform="translate(0.000000,256.000000) scale(0.100000,-0.100000)"
fill="#ff0000" stroke="none">
<path d="M436 2429 c-51 -27 -63 -39 -86 -91 -16 -36 -20 -66 -20 -180 l0
-138 34 0 35 0 3 144 c3 144 3 145 32 175 15 16 40 34 55 40 18 8 162 10 451
9 l425 -3 5 -222 5 -223 28 -27 27 -28 260 -3 260 -3 0 -735 c0 -810 2 -785
-62 -824 -27 -16 -50 -20 -127 -20 -89 0 -97 -2 -123 -27 -15 -15 -28 -31 -28
-36 0 -6 56 -8 140 -5 136 4 142 5 183 34 24 17 52 48 65 74 l22 44 0 771 0
771 -92 80 c-51 43 -108 93 -127 110 -68 59 -137 119 -196 169 -32 28 -66 57
-75 65 -8 8 -39 34 -67 58 l-51 42 -469 0 c-456 0 -469 -1 -507 -21z m1055
-132 c21 -18 114 -99 208 -181 94 -81 171 -152 171 -157 0 -5 -90 -9 -204 -9
-200 0 -205 0 -220 22 -13 18 -16 54 -16 184 0 88 3 164 7 167 10 11 16 8 54
-26z"/>
<path d="M70 1685 l0 -265 580 0 580 0 0 265 0 264 -580 1 -580 0 0 -265z
m381 136 c23 -24 29 -38 29 -75 0 -69 -29 -97 -111 -105 l-64 -6 0 -55 0 -55
-37 -3 -38 -3 0 165 0 166 96 0 c92 0 97 -1 125 -29z m287 9 c42 -26 62 -73
62 -145 0 -72 -20 -119 -62 -145 -27 -16 -50 -20 -125 -20 l-93 0 0 158 c0 87
3 162 7 165 3 4 45 7 92 7 69 0 93 -4 119 -20z m337 9 c4 -5 4 -21 1 -35 -6
-23 -10 -24 -81 -24 l-75 0 0 -30 0 -30 65 0 65 0 0 -35 0 -35 -65 0 -65 0 0
-65 0 -65 -40 0 -40 0 0 158 c0 87 3 162 7 165 11 12 221 8 228 -4z"/>
<path d="M309 1773 c0 -5 -2 -21 -4 -36 -4 -28 -3 -28 43 -25 41 3 47 6 50 27
2 13 -2 28 -10 32 -16 11 -78 12 -79 2z"/>
<path d="M600 1685 l0 -95 45 0 c61 0 79 27 73 107 -6 65 -23 83 -80 83 l-38
0 0 -95z"/>
<path d="M330 867 c0 -481 0 -483 23 -527 13 -26 40 -57 65 -75 l44 -30 324
-3 c178 -1 324 1 324 6 0 5 -12 20 -28 35 l-27 26 -292 3 c-275 3 -292 4 -313
23 -49 44 -50 53 -50 555 l0 470 -35 0 -35 0 0 -483z"/>
<path d="M1160 735 l0 -284 -69 -3 -70 -3 56 -60 c31 -33 108 -114 170 -179
l114 -119 112 119 c62 65 139 146 170 179 l56 60 -70 3 -69 3 0 284 0 285
-200 0 -200 0 0 -285z"/>
</g>
</svg>
